<svg width="312" height="402" viewBox="0 0 312 402" fill="none" xmlns="http://www.w3.org/2000/svg">
<path d="M254.662 372.646C252.2 390.929 234.311 405.212 216.533 400.281C191.203 393.301 161.874 382.415 135.484 380.387C132.004 380.119 95.037 377.316 95.037 377.316C88.4979 376.85 82.3603 373.993 77.7933 369.29L8.10021 297.516C0.483793 289.673 -1.57786 277.977 2.8976 268.002C2.8976 268.002 45.992 173.286 47.5925 168.361C49.1931 163.435 55.067 120.476 58.5478 97.3973C59.4704 91.2813 62.4896 85.6748 67.0879 81.5382L149.533 7.36969C161.003 -2.94865 178.807 -1.41958 188.349 10.7034L257.607 98.6877C261.526 103.668 263.534 109.856 263.563 116.192C263.642 132.861 265.018 167.085 274.233 189.128C283.199 210.569 299.652 233.725 308.251 245.119C311.551 249.492 312.056 255.406 309.269 260.123C303.2 270.398 291.209 290.128 274.233 315.443C262.53 332.897 257.107 354.473 254.662 372.646Z" fill="#757575"/>
</svg>
